<svg width="45" height="45" viewBox="0 0 45 45" fill="none" xmlns="http://www.w3.org/2000/svg">
<path d="M31.178 20C28.3192 20 27.9219 22.9263 27.9219 22.9263H34C34 22.9263 34.0387 20 31.178 20V20ZM17.3881 22.9263H12V27.9992H16.7702C16.8513 27.9992 16.9728 28.001 17.1152 27.9992C17.8826 27.9807 19.3372 27.7516 19.3372 25.5329C19.3372 22.8995 17.3881 22.9263 17.3881 22.9263V22.9263Z" fill="#1B1B1B"/>
<path d="M22.5009 0C10.074 0 0 10.0722 0 22.4991C0 34.926 10.074 45 22.5009 45C34.926 45 45 34.926 45 22.4991C45 10.0731 34.9251 0 22.5009 0ZM27.2368 13.8249H34.9826V16.1367H27.2368V13.8249ZM23.3215 25.9521C23.3215 31.6822 17.3593 31.4931 17.3593 31.4931H7.58955V12.7193H17.3593C20.3271 12.7193 22.67 14.3586 22.67 17.7175C22.67 21.0764 19.8054 21.2902 19.8054 21.2902C23.5819 21.2902 23.3215 25.9521 23.3215 25.9521ZM37.8116 25.6451H28.083C28.083 29.1319 31.3861 28.9126 31.3861 28.9126C34.5057 28.9126 34.3969 26.8924 34.3969 26.8924H37.7019C37.7019 32.2533 31.2756 31.886 31.2756 31.886C23.5673 31.886 24.0634 24.7085 24.0634 24.7085C24.0634 24.7085 24.0561 17.4963 31.2756 17.4963C38.8752 17.4963 37.8116 25.6451 37.8116 25.6451Z" fill="#1B1B1B"/>
<path d="M19 17.8647C19 16 17.632 16 17.632 16H12V20H17.2827C18.1941 20 19 19.7286 19 17.8647V17.8647Z" fill="#1B1B1B"/>
</svg>
