<svg width="45" height="45" viewBox="0 0 45 45" fill="none" xmlns="http://www.w3.org/2000/svg">
<path d="M22 27C24.2091 27 26 25.2091 26 23C26 20.7909 24.2091 19 22 19C19.7909 19 18 20.7909 18 23C18 25.2091 19.7909 27 22 27Z" fill="#1B1B1B"/>
<path d="M27.023 13H16.8848C15.4101 13 14.1198 13.4608 13.2903 14.2903C12.4608 15.1198 12 16.4101 12 17.8848V28.023C12 29.4977 12.4608 30.788 13.3825 31.7097C14.3041 32.5392 15.5023 33 16.977 33H27.023C28.4977 33 29.788 32.5392 30.6175 31.7097C31.5392 30.8802 32 29.5899 32 28.1152V17.977C32 16.5023 31.5392 15.3041 30.7097 14.3825C29.788 13.4608 28.5899 13 27.023 13V13ZM21.9539 29.2212C18.4516 29.2212 15.6866 26.3641 15.6866 22.9539C15.6866 19.4516 18.5438 16.6866 21.9539 16.6866C25.3641 16.6866 28.3134 19.4516 28.3134 22.9539C28.3134 26.4562 25.4562 29.2212 21.9539 29.2212ZM28.4977 17.8848C27.6682 17.8848 27.023 17.2396 27.023 16.4101C27.023 15.5806 27.6682 14.9355 28.4977 14.9355C29.3272 14.9355 29.9723 15.5806 29.9723 16.4101C29.9723 17.2396 29.3272 17.8848 28.4977 17.8848Z" fill="#1B1B1B"/>
<path d="M22.4997 0C10.0608 0 0 10.061 0 22.5C0 34.939 10.0608 45 22.4997 45C34.9385 45 44.9994 34.939 44.9994 22.5C45.0909 10.061 34.9385 0 22.4997 0ZM34.4812 27.8049C34.4812 29.9085 33.7495 31.7378 32.4691 33.0183C31.1886 34.2988 29.3594 34.939 27.3472 34.939H17.3778C15.3656 34.939 13.5364 34.2988 12.2559 33.0183C10.884 31.7378 10.2438 29.9085 10.2438 27.8049V17.7439C10.2438 13.5366 13.0791 10.6098 17.3778 10.6098H27.4387C29.5423 10.6098 31.2801 11.3415 32.5605 12.622C33.841 13.9024 34.4812 15.6402 34.4812 17.7439V27.8049Z" fill="#1B1B1B"/>
</svg>
