<svg width="45" height="45" viewBox="0 0 45 45" fill="none" xmlns="http://www.w3.org/2000/svg">
<path fill-rule="evenodd" clip-rule="evenodd" d="M22.5 0C34.9181 0 45 10.0819 45 22.5C45 34.9181 34.9181 45 22.5 45C10.0819 45 0 34.9181 0 22.5C0 10.0819 10.0819 0 22.5 0ZM22.5 7.99805C14.494 7.99805 7.99805 14.494 7.99805 22.5C7.99805 30.506 14.494 37.002 22.5 37.002C30.4903 37.002 37.002 30.506 37.002 22.5C37.002 14.494 30.4903 7.99805 22.5 7.99805ZM22.5 34.8942C19.6373 34.8942 16.9951 33.9191 14.903 32.2833C15.1232 31.827 17.6398 26.9829 24.6233 24.5448C24.6547 24.5291 24.6706 24.5291 24.702 24.5131C26.448 29.0274 27.1557 32.8182 27.3445 33.9035C25.8502 34.5482 24.2144 34.8942 22.5 34.8942V34.8942ZM29.405 32.7709C29.2791 32.0159 28.6187 28.3983 26.9985 23.947C30.8836 23.3336 34.2808 24.3403 34.7055 24.4818C34.1709 27.9264 32.1891 30.8993 29.405 32.7709ZM10.1058 22.5156V22.1383C10.6406 22.154 16.649 22.2325 22.8304 20.3767C23.1921 21.0687 23.5224 21.7764 23.8368 22.4844C23.6796 22.5316 23.5067 22.5786 23.3492 22.6259C16.9634 24.6863 13.5659 30.3172 13.2828 30.7891C11.317 28.6027 10.1058 25.6931 10.1058 22.5156V22.5156ZM32.0788 14.6828C33.8089 16.7906 34.8472 19.4801 34.8786 22.3898C34.4696 22.3112 30.3801 21.4777 26.2592 21.9968C26.165 21.7923 26.086 21.5719 25.9918 21.3517C25.74 20.7542 25.457 20.1408 25.1739 19.5587C29.7353 17.7028 31.8114 15.0289 32.0788 14.6828V14.6828ZM17.2309 11.301C17.5612 11.7416 19.7632 14.8088 21.8236 18.4577C16.0356 19.999 10.9237 19.9677 10.3732 19.9677C11.1751 16.1299 13.7704 12.9368 17.2309 11.301ZM22.5 10.1371C25.6458 10.1371 28.5241 11.317 30.7104 13.2515C30.4903 13.5659 28.6184 16.0669 24.2144 17.7184C22.1854 13.9909 19.9363 10.9393 19.5903 10.4674C20.5182 10.2473 21.4933 10.1371 22.5 10.1371V10.1371Z" fill="#1B1B1B"/>
</svg>
