<svg width="290" height="290" viewBox="0 0 290 290" fill="none" xmlns="http://www.w3.org/2000/svg">
<g clip-path="url(#clip0_237:38)">
<path d="M12.0832 12.4202H277.917V277.579H12.0832V12.4202Z" fill="#2E001E"/>
<path d="M-6.10352e-05 0.0297852V289.97H290V0.0297852H-6.10352e-05ZM12.0833 12.4204H277.917V277.58H12.0833V12.4204Z" fill="#FF2BC2"/>
<path d="M210.612 121.829C208.8 120.962 206.504 120.59 203.604 120.59C188.379 120.59 178.229 132.609 178.229 152.558C178.229 175.357 188.621 184.526 202.154 184.526C205.054 184.526 208.196 184.154 210.492 183.163V121.829H210.612ZM156.479 153.549C156.479 124.679 174.604 102.128 204.329 102.128C206.867 102.128 208.196 102.128 210.612 102.376V70.1606C210.612 69.4171 211.217 68.9215 211.821 68.9215H231.275C232.242 68.9215 232.483 69.2932 232.483 69.9128V183.163C232.483 186.508 232.483 190.721 233.087 195.306C233.087 196.173 233.087 196.297 232.362 196.669C222.212 201.625 211.579 203.855 201.429 203.855C175.208 203.855 156.479 187.252 156.479 153.549V153.549ZM115.275 133.477L149.108 200.758C149.713 201.749 149.35 202.74 148.383 202.74H127.358C126.029 202.74 125.425 202.368 124.821 201.129C117.088 184.774 109.233 167.799 101.138 150.204H100.896C93.6459 166.807 85.6709 184.898 77.9376 201.253C77.3334 202.244 76.7293 202.616 75.7626 202.616H55.7043C54.496 202.616 54.3751 201.625 54.9793 200.882L88.0876 135.583L56.0668 70.6562C55.3418 69.665 56.0668 68.7976 56.9126 68.7976H77.6959C78.9043 68.7976 79.5084 69.0454 79.8709 70.1606C87.4834 86.6401 95.2168 102.872 102.467 119.475H102.708C109.717 103.12 117.45 86.6401 124.821 70.4084C125.425 69.4171 125.788 68.7976 126.996 68.7976H146.45C147.417 68.7976 147.779 69.541 147.175 70.6562L115.275 133.477V133.477Z" fill="#FF2BC2"/>
</g>
<defs>
<clipPath id="clip0_237:38">
<rect width="290" height="290" fill="white"/>
</clipPath>
</defs>
</svg>
