<svg width="44" height="44" viewBox="0 0 44 44" fill="none" xmlns="http://www.w3.org/2000/svg">
<path fill-rule="evenodd" clip-rule="evenodd" d="M22 0C9.85417 0 0 9.85417 0 22C0 34.1458 9.85417 44 22 44C34.122 44 44 34.1458 44 22C44 9.85417 34.122 0 22 0ZM36.531 10.1402C39.2397 13.439 40.7386 17.565 40.7788 21.8332C40.1592 21.714 33.9552 20.449 27.7035 21.2373C27.5587 20.9257 27.4395 20.592 27.2965 20.2583C26.9077 19.3406 26.4944 18.4334 26.0572 17.5377C32.9762 14.7217 36.1258 10.6663 36.531 10.1402ZM22 3.24683C26.7722 3.24683 31.1392 5.03433 34.4557 7.9695C34.122 8.44617 31.2822 12.2412 24.6015 14.7455C21.5215 9.0915 18.1115 4.4605 17.5853 3.7455C19.0324 3.40759 20.514 3.23963 22 3.245V3.24683ZM14.0067 5.0105C14.5072 5.67967 17.8475 10.3327 20.9733 15.8675C12.1917 18.2068 4.43667 18.1592 3.6025 18.1592C4.81983 12.3365 8.75783 7.49283 14.0067 5.0105ZM3.19733 22.0238V21.4518C4.0095 21.4757 13.123 21.5948 22.5023 18.7788C23.0505 19.8293 23.551 20.9018 24.0277 21.9762C23.7893 22.0477 23.5272 22.1192 23.2888 22.1907C13.6015 25.3165 8.44617 33.858 8.01717 34.5748C4.91409 31.1309 3.19697 26.6595 3.19733 22.0238ZM22 40.8027C17.6568 40.8027 13.6492 39.3232 10.4757 36.8427C10.8093 36.1497 14.6263 28.7998 25.2212 25.102C25.2688 25.0782 25.2945 25.0782 25.3403 25.0543C27.9895 31.9018 29.062 37.653 29.3498 39.2993C27.082 40.2783 24.6015 40.8027 22 40.8027ZM32.4757 37.5815C32.285 36.4357 31.2822 30.9485 28.8237 24.1945C34.7178 23.265 39.8713 24.7922 40.5167 25.0067C39.7045 30.2317 36.6978 34.7417 32.4757 37.5815Z" fill="#1B1B1B"/>
</svg>
