<svg width="64" height="64" viewBox="0 0 64 64" fill="none" xmlns="http://www.w3.org/2000/svg">
<path d="M55 7H9C7.89375 7 7 7.89375 7 9V55C7 56.1063 7.89375 57 9 57H55C56.1063 57 57 56.1063 57 55V9C57 7.89375 56.1063 7 55 7ZM32.0687 32.3812L20.0688 42.4437C19.7438 42.7188 19.25 42.4875 19.25 42.0625V38.1437C19.25 38 19.3187 37.8563 19.4312 37.7625L26.2938 32L19.4312 26.2375C19.3738 26.1921 19.3276 26.1341 19.2961 26.068C19.2647 26.0019 19.2489 25.9294 19.25 25.8563V21.9375C19.25 21.5125 19.7438 21.2812 20.0688 21.5562L32.0687 31.6125C32.3125 31.8125 32.3125 32.1812 32.0687 32.3812ZM44.75 42.0625C44.75 42.3375 44.5375 42.5625 44.2812 42.5625H32.7188C32.4625 42.5625 32.25 42.3375 32.25 42.0625V39.0625C32.25 38.7875 32.4625 38.5625 32.7188 38.5625H44.2812C44.5375 38.5625 44.75 38.7875 44.75 39.0625V42.0625Z" fill="#E5E5E5"/>
</svg>
