<svg width="41" height="40" viewBox="0 0 41 40" fill="none" xmlns="http://www.w3.org/2000/svg">
<g clip-path="url(#clip0_9:20)">
<path d="M9.30637 39.9996V13.0116H0.517559V39.9996H9.30637ZM4.9131 9.32463C7.97792 9.32463 9.88562 7.25227 9.88562 4.66251C9.82852 2.01435 7.97803 -0.000492096 4.97126 -0.000492096C1.96496 -0.000492096 -0.000976562 2.01439 -0.000976562 4.66251C-0.000976562 7.25239 1.90625 9.32463 4.85573 9.32463H4.91283H4.9131ZM14.171 39.9996H22.9598V24.9282C22.9598 24.1216 23.0169 23.3158 23.249 22.7392C23.8843 21.1276 25.3304 19.4585 27.7583 19.4585C30.9386 19.4585 32.2109 21.9334 32.2109 25.5614V39.9994H40.9991V24.5247C40.9991 16.2351 36.6632 12.378 30.8807 12.378C26.1395 12.378 24.0578 15.0829 22.9013 16.9252H22.96V13.011H14.1712C14.2865 15.5434 14.1712 39.999 14.1712 39.999L14.171 39.9996Z" fill="#1B1B1B"/>
</g>
<defs>
<clipPath id="clip0_9:20">
<rect width="41" height="40" fill="white"/>
</clipPath>
</defs>
</svg>
