<svg width="64" height="64" viewBox="0 0 64 64" fill="none" xmlns="http://www.w3.org/2000/svg">
<path d="M24.6239 8.4543C26.4959 7.1743 28.9215 6.3999 31.9999 6.3999C35.0783 6.3999 37.5039 7.1743 39.3759 8.4543C41.2415 9.7247 42.4575 11.4271 43.2479 13.1263C44.3039 15.3855 44.6431 17.7247 44.7519 19.2543C46.8223 19.4079 48.9439 19.9039 50.6879 21.0687C52.9855 22.6015 54.3999 25.1327 54.3999 28.7999C54.3999 32.5439 52.9983 35.0911 50.6751 36.6079C48.4831 38.0415 45.6991 38.3999 43.1999 38.3999H20.7999C18.2719 38.3999 15.4975 37.9871 13.3119 36.5311C11.0143 34.9983 9.59985 32.4671 9.59985 28.7999C9.59985 25.1327 11.0143 22.6015 13.3119 21.0687C15.0559 19.9039 17.1775 19.4079 19.2511 19.2543C19.3567 17.7247 19.6927 15.3855 20.7487 13.1231C21.5925 11.2439 22.9308 9.62914 24.6207 8.4511L24.6239 8.4543Z" fill="#E5E5E5"/>
<path d="M32 47.9999C32 49.6972 31.3257 51.3251 30.1254 52.5253C28.9252 53.7256 27.2973 54.3999 25.6 54.3999C23.9026 54.3999 22.2747 53.7256 21.0745 52.5253C19.8742 51.3251 19.2 49.6972 19.2 47.9999C19.2 46.3025 19.8742 44.6746 21.0745 43.4744C22.2747 42.2741 23.9026 41.5999 25.6 41.5999C27.2973 41.5999 28.9252 42.2741 30.1254 43.4744C31.3257 44.6746 32 46.3025 32 47.9999V47.9999Z" fill="#E5E5E5"/>
<path d="M15.9999 52.8C15.9999 53.4303 15.8757 54.0545 15.6345 54.6369C15.3933 55.2192 15.0397 55.7484 14.594 56.1941C14.1483 56.6398 13.6191 56.9934 13.0368 57.2346C12.4544 57.4758 11.8302 57.6 11.1999 57.6C10.5696 57.6 9.94538 57.4758 9.36302 57.2346C8.78066 56.9934 8.25151 56.6398 7.80579 56.1941C7.36007 55.7484 7.0065 55.2192 6.76528 54.6369C6.52406 54.0545 6.3999 53.4303 6.3999 52.8C6.3999 51.527 6.90562 50.3061 7.80579 49.4059C8.70596 48.5057 9.92686 48 11.1999 48C12.4729 48 13.6938 48.5057 14.594 49.4059C15.4942 50.3061 15.9999 51.527 15.9999 52.8V52.8Z" fill="#E5E5E5"/>
</svg>
