<svg width="290" height="290" viewBox="0 0 290 290" fill="none" xmlns="http://www.w3.org/2000/svg">
<path d="M193.333 193.333C220.027 193.333 241.667 171.694 241.667 145C241.667 118.306 220.027 96.6667 193.333 96.6667C166.64 96.6667 145 118.306 145 145C145 171.694 166.64 193.333 193.333 193.333Z" fill="#19BCFE"/>
<path fill-rule="evenodd" clip-rule="evenodd" d="M96.6667 290C109.486 290 121.779 284.908 130.844 275.843C139.908 266.779 145 254.485 145 241.667V193.333H96.6667C83.8479 193.333 71.5541 198.426 62.4899 207.49C53.4256 216.554 48.3334 228.848 48.3334 241.667C48.3334 254.485 53.4256 266.779 62.4899 275.843C71.5541 284.908 83.8479 290 96.6667 290V290Z" fill="#09CF83"/>
<path fill-rule="evenodd" clip-rule="evenodd" d="M96.6667 193.333H145V96.6667H96.6667C83.8479 96.6667 71.5541 101.759 62.4899 110.823C53.4256 119.888 48.3334 132.181 48.3334 145C48.3334 157.819 53.4256 170.113 62.4899 179.177C71.5541 188.241 83.8479 193.333 96.6667 193.333V193.333Z" fill="#A259FF"/>
<path fill-rule="evenodd" clip-rule="evenodd" d="M96.6667 96.6667H145V0H96.6667C83.8479 0 71.5541 5.09225 62.4899 14.1565C53.4256 23.2208 48.3334 35.5145 48.3334 48.3333C48.3334 61.1521 53.4256 73.4459 62.4899 82.5102C71.5541 91.5744 83.8479 96.6667 96.6667 96.6667V96.6667Z" fill="#F24E1E"/>
<path fill-rule="evenodd" clip-rule="evenodd" d="M193.333 96.6667H145V0H193.333C206.152 0 218.446 5.09225 227.51 14.1565C236.574 23.2208 241.667 35.5145 241.667 48.3333C241.667 61.1521 236.574 73.4459 227.51 82.5102C218.446 91.5744 206.152 96.6667 193.333 96.6667Z" fill="#FF7262"/>
</svg>
