<svg width="64" height="64" viewBox="0 0 64 64" fill="none" xmlns="http://www.w3.org/2000/svg">
<path d="M58.1066 45.4933L43.3066 30.6933L47.4933 26.5066L37.4933 16.5066L33.3066 20.6933L18.5066 5.89331L5.89331 18.5066L20.6933 33.3066L7.99998 46V56H18L30.6933 43.3066L45.4933 58.1066L58.1066 45.4933ZM24.48 29.52L13.44 18.5066L18.5066 13.44L21.8933 16.8266L18.72 20L22.48 23.76L25.6533 20.5866L29.52 24.4533L24.48 29.52ZM34.48 39.52L39.5466 34.4533L43.4133 38.32L40.24 41.4933L44 45.2533L47.1733 42.08L50.56 45.4666L45.4933 50.5333L34.48 39.52ZM40.3546 13.6613L47.1226 6.89064L57.1173 16.8853L50.3493 23.656L40.3546 13.6613Z" fill="#E5E5E5"/>
</svg>
