<svg width="290" height="290" viewBox="0 0 290 290" fill="none" xmlns="http://www.w3.org/2000/svg">
<path d="M0 0H290V290H0V0Z" fill="#F7DF1E"/>
<path d="M76.2519 242.345L98.4437 228.914C102.726 236.505 106.62 242.928 115.963 242.928C124.917 242.928 130.565 239.426 130.565 225.8V133.138H157.817V226.185C157.817 254.412 141.271 267.26 117.131 267.26C95.3296 267.26 82.6749 255.969 76.2507 242.343" fill="black"/>
<path d="M172.619 239.424L194.809 226.577C200.65 236.117 208.243 243.124 221.673 243.124C232.966 243.124 240.166 237.478 240.166 229.691C240.166 220.348 232.769 217.038 220.31 211.589L213.499 208.666C193.837 200.298 180.795 189.786 180.795 167.594C180.795 147.154 196.367 131.58 220.701 131.58C238.027 131.58 250.485 137.615 259.439 153.383L238.219 167.011C233.546 158.64 228.487 155.331 220.7 155.331C212.718 155.331 207.657 160.393 207.657 167.011C207.657 175.186 212.718 178.497 224.398 183.559L231.21 186.478C254.376 196.407 267.418 206.529 267.418 229.303C267.418 253.833 248.147 267.263 222.257 267.263C196.951 267.263 180.599 255.194 172.618 239.426" fill="black"/>
</svg>
