<svg width="290" height="290" viewBox="0 0 290 290" fill="none" xmlns="http://www.w3.org/2000/svg">
<g clip-path="url(#clip0_237:14)">
<path d="M144.823 289.088L26.8047 260.166L0.50415 -0.233887H289.496L263.168 260.126L144.823 289.088V289.088Z" fill="#264DE4"/>
<path d="M240.629 243.547L263.126 21.0569H145V266.95L240.629 243.547V243.547Z" fill="#2965F1"/>
<path d="M60.7969 117.636L64.039 149.573H145V117.636H60.7969Z" fill="#EBEBEB"/>
<path d="M54.281 52.9951L57.5696 84.9321H145V52.9951H54.281V52.9951Z" fill="#EBEBEB"/>
<path d="M145 200.58L144.841 200.617L104.549 191.013L101.973 165.542H65.6555L70.7237 215.688L144.833 233.848L145 233.808V200.58Z" fill="#EBEBEB"/>
<path d="M228.972 117.636L235.503 52.9951H144.875V84.9321H195.854L192.562 117.636H144.875V149.573H189.426L185.225 190.993L144.874 200.607V233.833L219.043 215.688L219.587 210.292L228.09 126.212L228.972 117.636V117.636Z" fill="white"/>
</g>
<defs>
<clipPath id="clip0_237:14">
<rect width="290" height="290" fill="white"/>
</clipPath>
</defs>
</svg>
