<svg width="290" height="290" viewBox="0 0 290 290" fill="none" xmlns="http://www.w3.org/2000/svg">
<path d="M0 252.607C0 273.26 16.7418 290 37.393 290H252.606C273.26 290 290 273.258 290 252.607V37.3941C290 16.7396 273.258 0 252.607 0H37.3941C16.7396 0 0 16.7418 0 37.393V252.606V252.607Z" fill="#563D7C"/>
<path d="M120.257 128.277V87.2096H156.406C159.85 87.2096 163.169 87.4962 166.366 88.0705C169.563 88.6437 172.391 89.6678 174.851 91.1438C177.309 92.6199 179.277 94.6691 180.753 97.2916C182.228 99.9152 182.966 103.276 182.966 107.374C182.966 114.752 180.753 120.08 176.326 123.359C171.9 126.638 166.244 128.277 159.357 128.277H120.257V128.277ZM81.6475 57.207V232.793H166.735C174.605 232.793 182.27 231.81 189.729 229.842C197.189 227.874 203.828 224.842 209.648 220.743C215.468 216.645 220.1 211.357 223.542 204.882C226.986 198.405 228.707 190.741 228.707 181.888C228.707 170.903 226.043 161.518 220.715 153.731C215.386 145.943 207.311 140.491 196.491 137.376C204.36 133.606 210.304 128.769 214.321 122.867C218.337 116.965 220.346 109.588 220.346 100.734C220.346 92.5372 218.993 85.652 216.288 80.0774C213.583 74.5039 209.771 70.0361 204.852 66.6751C199.935 63.314 194.033 60.8955 187.146 59.4205C180.261 57.9445 172.637 57.207 164.276 57.207H81.6475V57.207ZM120.257 202.79V154.59H162.308C170.67 154.59 177.392 156.516 182.475 160.37C187.556 164.223 190.098 170.657 190.098 179.674C190.098 184.266 189.319 188.036 187.761 190.987C186.204 193.938 184.114 196.274 181.49 197.995C178.868 199.717 175.834 200.946 172.391 201.685C168.948 202.421 165.342 202.79 161.571 202.79H120.257V202.79Z" fill="white"/>
</svg>
