<svg width="290" height="290" viewBox="0 0 290 290" fill="none" xmlns="http://www.w3.org/2000/svg">
<g clip-path="url(#clip0_237:3)">
<path d="M289.496 -0.233887L263.168 260.126L144.823 289.088L26.8047 260.166L0.50415 -0.233887H289.496Z" fill="#E44D26"/>
<path d="M145 266.95L240.629 243.547L263.126 21.0569H145V266.95Z" fill="#F16529"/>
<path d="M93.8196 84.9321H145V52.9951H54.281L55.1465 61.5631L64.039 149.573H145V117.636H97.1262L93.8196 84.9321V84.9321Z" fill="#EBEBEB"/>
<path d="M101.973 165.542H65.6555L70.7237 215.688L144.833 233.848L145 233.808V200.58L144.841 200.617L104.549 191.013L101.973 165.542V165.542Z" fill="#EBEBEB"/>
<path d="M144.875 149.573H189.426L185.225 190.993L144.874 200.607V233.833L219.043 215.688L219.587 210.292L228.09 126.212L228.972 117.636H144.875V149.573Z" fill="white"/>
<path d="M144.875 84.8541V84.9321H232.264L232.989 77.7541L234.638 61.5631L235.503 52.9951H144.875V84.8551V84.8541Z" fill="white"/>
</g>
<defs>
<clipPath id="clip0_237:3">
<rect width="290" height="290" fill="white"/>
</clipPath>
</defs>
</svg>
