<svg width="64" height="64" viewBox="0 0 64 64" fill="none" xmlns="http://www.w3.org/2000/svg">
<path d="M39.9999 23.9998C39.2927 23.9998 38.6144 23.7189 38.1143 23.2188C37.6142 22.7187 37.3333 22.0404 37.3333 21.3332C37.3333 20.6259 37.6142 19.9477 38.1143 19.4476C38.6144 18.9475 39.2927 18.6665 39.9999 18.6665C40.7072 18.6665 41.3854 18.9475 41.8855 19.4476C42.3856 19.9477 42.6666 20.6259 42.6666 21.3332C42.6666 22.0404 42.3856 22.7187 41.8855 23.2188C41.3854 23.7189 40.7072 23.9998 39.9999 23.9998ZM23.9999 23.9998C23.2927 23.9998 22.6144 23.7189 22.1143 23.2188C21.6142 22.7187 21.3333 22.0404 21.3333 21.3332C21.3333 20.6259 21.6142 19.9477 22.1143 19.4476C22.6144 18.9475 23.2927 18.6665 23.9999 18.6665C24.7072 18.6665 25.3854 18.9475 25.8855 19.4476C26.3856 19.9477 26.6666 20.6259 26.6666 21.3332C26.6666 22.0404 26.3856 22.7187 25.8855 23.2188C25.3854 23.7189 24.7072 23.9998 23.9999 23.9998ZM42.9866 11.6532L48.5866 6.05318L46.3999 3.83984L40.2399 9.99984C37.7599 8.74651 34.9599 7.99984 31.9999 7.99984C29.0133 7.99984 26.2399 8.74651 23.7599 9.99984L17.5999 3.83984L15.4133 6.05318L21.0133 11.6532C16.3733 15.0398 13.3333 20.4798 13.3333 26.6665V29.3332H50.6666V26.6665C50.6666 20.4798 47.6266 15.0398 42.9866 11.6532ZM13.3333 42.6665C13.3333 52.9598 21.6799 61.3332 31.9999 61.3332C36.9506 61.3332 41.6986 59.3665 45.1993 55.8658C48.6999 52.3652 50.6666 47.6172 50.6666 42.6665V31.9998H13.3333V42.6665Z" fill="#E5E5E5"/>
</svg>
